<?xml version="1.0" encoding="UTF-8" standalone="no"?>
<svg
   xmlns:osb="http://www.openswatchbook.org/uri/2009/osb"
   xmlns:dc="http://purl.org/dc/elements/1.1/"
   xmlns:cc="http://creativecommons.org/ns#"
   xmlns:rdf="http://www.w3.org/1999/02/22-rdf-syntax-ns#"
   xmlns:svg="http://www.w3.org/2000/svg"
   xmlns="http://www.w3.org/2000/svg"
   xml:space="preserve"
   style="fill:#358f18"
   viewBox="0 0 634.49024 556.06797"
   height="556.06799"
   width="634.49023"
   y="0px"
   x="0px"
   id="Capa_1"
   version="1.1"><metadata
     id="metadata47"><rdf:RDF><cc:Work
         rdf:about=""><dc:format>image/svg+xml</dc:format><dc:type
           rdf:resource="http://purl.org/dc/dcmitype/StillImage" /><dc:title></dc:title></cc:Work></rdf:RDF></metadata><defs
     id="defs45"><linearGradient
       osb:paint="solid"
       id="linearGradient4342"><stop
         id="stop4344"
         offset="0"
         style="stop-color:#000000;stop-opacity:1;" /></linearGradient></defs><path
     d="m 161.37127,390.12233 c -5.41678,-8.79935 -54.95352,-9.1018 -54.37661,-116.54224 0.60439,-112.55942 93.95983,-244.69074 250.0486,-244.89209 137.16488,-0.176939 248.75,112.78 248.75,249.945 0,137.164 -111.585,248.748 -248.75,248.748 -6.455,0 -12.938,-0.248 -19.383,-0.744 l 32.541,-74.941 -26.316,-11.428 -40.249,92.689 c -1.769,4.082 -1.549,8.76 0.603,12.65 2.151,3.893 5.986,6.57 10.385,7.238 13.961,2.143 28.238,3.223 42.429,3.223 152.981,0 277.437,-125.049 277.437,-278.029 C 634.49026,125.059 510.02525,0 357.04326,0 188.52041,0 77.408173,141.32298 77.42028,274.89001 77.43239,408.45703 155.95449,411.32298 142.39119,416.338 Z"
     id="path5"
     style="fill:#000000" /><path
     id="rect7192"
     d="m 196.85181,92.497873 262.30204,0 0,88.201857 -262.30204,0 z"
     style="fill:none;stroke:#000000;stroke-width:5.53656292;stroke-miterlimit:4;stroke-dasharray:none;stroke-opacity:1" /><path
     id="rect7194"
     d="m 204.14084,101.02429 0,71.74301 56.83524,0 0,-71.74301 -56.83524,0 z m 30.66359,11.47847 4.93555,0 0,42.73631 9.68128,0 0,4.84062 -25.6682,0 0,-4.84062 9.87319,0 0,-31.78193 -9.87319,0 0,-4.33099 c 1.33753,0 2.77145,-0.10549 4.30005,-0.31778 1.52859,-0.23353 2.68504,-0.56372 3.47057,-0.98833 0.97661,-0.53077 1.7404,-1.19883 2.29241,-2.00559 0.5732,-0.82798 0.9034,-1.93171 0.98834,-3.31169 z"
     style="fill:#000000;fill-opacity:1;stroke:none;stroke-width:3.0867908;stroke-miterlimit:4;stroke-dasharray:none;stroke-opacity:1" /><path
     id="rect7196"
     d="m 469.69179,101.68968 0,71.74301 56.83523,0 0,-71.74301 -56.83523,0 z m 18.75181,11.63735 28.53419,0 0,5.57314 -22.38744,0 0,12.61125 c 0.91291,-0.0849 1.84667,-0.14944 2.80204,-0.1919 0.95537,-0.0425 1.78367,-0.0639 2.48427,-0.0639 2.56891,0 4.81935,0.22268 6.75133,0.66851 1.93197,0.42463 3.70582,1.19048 5.31933,2.29447 1.69846,1.16769 3.01308,2.67376 3.94721,4.52082 0.93415,1.84705 1.40102,4.16199 1.40102,6.9432 0,2.20797 -0.40236,4.31967 -1.20912,6.33658 -0.80678,2.0169 -1.91048,3.71651 -3.31169,5.09649 -1.52861,1.48615 -3.35517,2.63081 -5.47823,3.43756 -2.10181,0.78555 -4.54371,1.17817 -7.32492,1.17817 -2.59012,0 -5.08476,-0.2754 -7.4838,-0.8274 -2.39905,-0.53077 -4.42474,-1.17732 -6.08074,-1.94162 l 0,-6.72036 0.4457,0 c 1.7409,1.10399 3.77838,2.04953 6.11374,2.83506 2.33535,0.76429 4.62879,1.14515 6.87924,1.14515 1.50735,0 2.96072,-0.2109 4.36193,-0.63551 1.42244,-0.42461 2.68641,-1.16897 3.79039,-2.23048 0.93415,-0.91292 1.63342,-2.00486 2.1005,-3.27868 0.48831,-1.27384 0.73249,-2.75077 0.73249,-4.42796 0,-1.63477 -0.28513,-3.01391 -0.85836,-4.13912 -0.55199,-1.12521 -1.32757,-2.02775 -2.32539,-2.70713 -1.10399,-0.80675 -2.4519,-1.36937 -4.04418,-1.68782 -1.57106,-0.33969 -3.33312,-0.50965 -5.28634,-0.50965 -1.86827,0 -3.67335,0.12696 -5.41425,0.38172 -1.71968,0.25477 -3.20631,0.51074 -4.45892,0.76551 l 0,-24.42605 z"
     style="fill:#000000;fill-opacity:1;stroke:none;stroke-width:3.0867908;stroke-miterlimit:4;stroke-dasharray:none;stroke-opacity:1" /><path
     id="rect7198"
     d="m 393.74316,101.02429 0,71.74301 56.83523,0 0,-71.74301 -56.83523,0 z m 36.17274,11.63735 5.85994,0 0,28.97988 7.03606,0 0,5.09444 -7.03606,0 0,13.34373 -6.11579,0 0,-13.34373 -22.70521,0 0,-7.32493 22.96106,-26.74939 z m -0.25585,7.57871 -18.37421,21.40117 18.37421,0 0,-21.40117 z"
     style="fill:#000000;fill-opacity:1;stroke:none;stroke-width:3.0867908;stroke-miterlimit:4;stroke-dasharray:none;stroke-opacity:1" /><path
     id="rect7200"
     d="m 331.23115,101.02429 0,71.74301 56.83316,0 0,-71.74301 -56.83316,0 z m 30.78944,10.649 c 2.31413,0 4.3516,0.21297 6.11375,0.63757 1.76212,0.42461 3.35422,1.10446 4.77666,2.03861 1.52859,1.01905 2.68504,2.24974 3.47059,3.69341 0.78552,1.44367 1.18023,3.13151 1.18023,5.06348 0,2.63259 -0.93582,4.93576 -2.80411,6.9102 -1.84704,1.9532 -4.03298,3.18594 -6.55941,3.69547 l 0,0.44569 c 1.01906,0.16984 2.18729,0.53127 3.50358,1.08326 1.31629,0.53076 2.42972,1.19882 3.34263,2.00558 1.01908,0.91293 1.85917,2.05964 2.51731,3.43963 0.65814,1.37998 0.98628,3.16354 0.98628,5.35028 0,2.16553 -0.39265,4.15026 -1.17816,5.95486 -0.78555,1.8046 -1.88926,3.37519 -3.31171,4.71271 -1.59229,1.48615 -3.47159,2.58986 -5.6371,3.3117 -2.14428,0.7006 -4.50017,1.05023 -7.06905,1.05023 -2.63259,0 -5.22296,-0.31841 -7.77062,-0.95531 -2.54767,-0.61571 -4.63992,-1.29346 -6.27468,-2.03655 l 0,-6.65639 0.4787,0 c 1.80459,1.18891 3.92808,2.17539 6.36959,2.96091 2.44151,0.78554 4.79741,1.17818 7.06907,1.17818 1.33752,0 2.75967,-0.22267 4.26703,-0.66851 1.50736,-0.44585 2.72833,-1.10421 3.66245,-1.97465 0.97662,-0.93415 1.69741,-1.96363 2.16448,-3.08884 0.4883,-1.12521 0.73249,-2.54736 0.73249,-4.26702 0,-1.69846 -0.27542,-3.09909 -0.82741,-4.20308 -0.53076,-1.12521 -1.27306,-2.00623 -2.22843,-2.64316 -0.95537,-0.65815 -2.11389,-1.10352 -3.47264,-1.33706 -1.35874,-0.25477 -2.82183,-0.38379 -4.39288,-0.38379 l -2.86602,0 0,-5.28631 2.22844,0 c 3.22703,0 5.7959,-0.66808 7.70665,-2.00559 1.93196,-1.35877 2.89694,-3.33379 2.89694,-5.9239 0,-1.14646 -0.24418,-2.14266 -0.73249,-2.99187 -0.48829,-0.87045 -1.16607,-1.58358 -2.03652,-2.13559 -0.91293,-0.55199 -1.8897,-0.93285 -2.92998,-1.14515 -1.04029,-0.21231 -2.21824,-0.31984 -3.53453,-0.31984 -2.01691,0 -4.1619,0.36143 -6.43356,1.08327 -2.27167,0.72184 -4.41665,1.74161 -6.43356,3.0579 l -0.31775,0 0,-6.65641 c 1.50736,-0.74306 3.51361,-1.42291 6.01881,-2.03858 2.52643,-0.63693 4.96835,-0.95534 7.32493,-0.95534 z"
     style="fill:#000000;fill-opacity:1;stroke:none;stroke-width:3.0867908;stroke-miterlimit:4;stroke-dasharray:none;stroke-opacity:1" /><path
     id="rect7202"
     d="m 267.49647,101.02429 0,71.74301 56.83522,0 0,-71.74301 -56.83522,0 z m 30.40772,10.649 c 4.86179,0 8.67311,1.18 11.43308,3.5366 2.75996,2.33535 4.13909,5.50776 4.13909,9.52033 0,1.80461 -0.23241,3.49244 -0.69948,5.06348 -0.44584,1.54983 -1.1139,3.02676 -2.00559,4.42798 -0.82799,1.31629 -1.80475,2.61147 -2.92997,3.8853 -1.10398,1.27385 -2.4519,2.68419 -4.04418,4.23402 -2.27166,2.2292 -4.61783,4.39569 -7.03813,6.49753 -2.42027,2.08059 -4.68249,4.0126 -6.78432,5.79596 l 25.50931,0 0,5.4452 -32.10174,0 0,-6.65638 6.68734,-5.73202 c 2.25045,-1.91075 4.34271,-3.80948 6.27469,-5.69899 4.07626,-3.9489 6.8678,-7.08036 8.37517,-9.39448 1.50737,-2.33535 2.26145,-4.85151 2.26145,-7.54777 0,-2.46276 -0.81653,-4.38504 -2.45128,-5.76502 -1.61351,-1.40122 -3.87574,-2.10258 -6.78433,-2.10258 -1.93198,0 -4.02216,0.33994 -6.2726,1.01932 -2.25045,0.67937 -4.44815,1.72063 -6.59245,3.12185 l -0.31981,0 0,-6.68734 c 1.50737,-0.74309 3.51362,-1.42291 6.01881,-2.03861 2.52644,-0.61569 4.96835,-0.92438 7.32494,-0.92438 z"
     style="fill:#000000;fill-opacity:1;stroke:none;stroke-width:3.0867908;stroke-miterlimit:4;stroke-dasharray:none;stroke-opacity:1" /><g
     id="text7206"
     style="font-style:normal;font-variant:normal;font-weight:normal;font-stretch:normal;font-size:61.73581314px;line-height:125%;font-family:Roboto;-inkscape-font-specification:Roboto;letter-spacing:0px;word-spacing:0px;fill:#e6e6e6;fill-opacity:1;stroke:none"
     transform="translate(70.954498,-4.7020448)" /><g
     id="text7210"
     style="font-style:normal;font-variant:normal;font-weight:normal;font-stretch:normal;font-size:61.73581314px;line-height:125%;font-family:Roboto;-inkscape-font-specification:Roboto;letter-spacing:0px;word-spacing:0px;fill:#ffffff;fill-opacity:1;stroke:none"
     transform="translate(70.954498,-4.7020448)" /><g
     id="text7214"
     style="font-style:normal;font-variant:normal;font-weight:normal;font-stretch:normal;font-size:61.73581314px;line-height:125%;font-family:Roboto;-inkscape-font-specification:Roboto;letter-spacing:0px;word-spacing:0px;fill:#ffffff;fill-opacity:1;stroke:none"
     transform="translate(70.954498,-4.7020448)" /><g
     id="text7218"
     style="font-style:normal;font-variant:normal;font-weight:normal;font-stretch:normal;font-size:61.73581314px;line-height:125%;font-family:Roboto;-inkscape-font-specification:Roboto;letter-spacing:0px;word-spacing:0px;fill:#ffffff;fill-opacity:1;stroke:none"
     transform="translate(70.954498,-4.7020448)" /><g
     id="text7222"
     style="font-style:normal;font-variant:normal;font-weight:normal;font-stretch:normal;font-size:61.73581314px;line-height:125%;font-family:Roboto;-inkscape-font-specification:Roboto;letter-spacing:0px;word-spacing:0px;fill:#ffffff;fill-opacity:1;stroke:none"
     transform="translate(70.954498,-4.7020448)" /><g
     id="text7226"
     style="font-style:normal;font-variant:normal;font-weight:normal;font-stretch:normal;font-size:61.73581314px;line-height:125%;font-family:Roboto;-inkscape-font-specification:Roboto;letter-spacing:0px;word-spacing:0px;fill:#ffffff;fill-opacity:1;stroke:none"
     transform="translate(70.954498,-4.7020448)" /><g
     style="fill:#000000"
     transform="matrix(0.9,0,0,0.9,86.67396,63.827309)"
     id="g4227"><path
       style="fill:#000000"
       id="path7"
       d="M 284.886,234.808 237.36,383.886 c -4.877,10.328 -0.459,22.654 9.869,27.531 l 102.844,48.568 c 10.328,4.877 22.654,0.459 27.531,-9.869 l 84.924,-131.418 c 4.877,-10.326 0.459,-22.652 -9.868,-27.529 l -140.253,-66.23 c -10.318,-4.877 -22.644,-0.459 -27.521,9.869 z m 78.804,185.656 -2.209,4.676 c -1.826,3.873 -6.454,5.527 -10.327,3.699 L 271.68,391.308 c -3.873,-1.826 -5.527,-6.455 -3.701,-10.328 l 2.209,-4.676 c 1.827,-3.873 6.455,-5.527 10.328,-3.701 l 79.474,37.533 c 3.872,1.826 5.527,6.455 3.7,10.328 z m 22.807,-47.181 -2.209,4.676 c -1.826,3.873 -6.454,5.527 -10.327,3.701 l -79.474,-37.533 c -3.873,-1.826 -5.527,-6.455 -3.701,-10.328 l 2.209,-4.676 c 1.826,-3.873 6.455,-5.527 10.327,-3.701 l 79.475,37.533 c 3.872,1.836 5.536,6.455 3.7,10.328 z m -36.558,-79.905 c 4.476,-9.467 15.769,-13.522 25.235,-9.047 9.468,4.466 13.521,15.77 9.047,25.236 -4.466,9.467 -15.769,13.521 -25.235,9.045 -9.467,-4.464 -13.512,-15.767 -9.047,-25.234 z" /><path
       style="fill:#000000"
       id="path9"
       d="m 389.031,135.338 c -5.164,-2.438 -11.322,-0.229 -13.761,4.934 l -39.741,84.15 18.704,8.826 39.742,-84.15 c 2.429,-5.163 0.22,-11.321 -4.944,-13.76 z" /><path
       style="fill:#000000"
       id="path11"
       d="m 473.182,175.071 c -5.164,-2.438 -11.332,-0.229 -13.771,4.934 l -39.741,84.15 18.704,8.826 39.741,-84.15 c 2.439,-5.154 0.23,-11.322 -4.933,-13.76 z" /></g><g
     id="g13"
     transform="translate(70.954498,-4.7020448)" /><g
     id="g15"
     transform="translate(70.954498,-4.7020448)" /><g
     id="g17"
     transform="translate(70.954498,-4.7020448)" /><g
     id="g19"
     transform="translate(70.954498,-4.7020448)" /><g
     id="g21"
     transform="translate(70.954498,-4.7020448)" /><g
     id="g23"
     transform="translate(70.954498,-4.7020448)" /><g
     id="g25"
     transform="translate(70.954498,-4.7020448)" /><g
     id="g27"
     transform="translate(70.954498,-4.7020448)" /><g
     id="g29"
     transform="translate(70.954498,-4.7020448)" /><g
     id="g31"
     transform="translate(70.954498,-4.7020448)" /><g
     id="g33"
     transform="translate(70.954498,-4.7020448)" /><g
     id="g35"
     transform="translate(70.954498,-4.7020448)" /><g
     id="g37"
     transform="translate(70.954498,-4.7020448)" /><g
     id="g39"
     transform="translate(70.954498,-4.7020448)" /><g
     id="g41"
     transform="translate(70.954498,-4.7020448)" /><g
     transform="matrix(3.2222451,0,0,3.2222451,-1076.4816,-1676.3711)"
     id="g6089"
     style="fill:#000000;fill-opacity:1"><g
       id="g6081"
       style="fill:#000000;fill-opacity:1"><path
         style="fill:#000000;fill-opacity:1;fill-rule:nonzero;stroke:none"
         d="m 378.04324,641.89752 8.08122,0 c 4.7568,0 8.58629,3.82949 8.58629,8.5863 l 0,8.08122 c 0,4.75681 -3.82949,8.58629 -8.58629,8.58629 l -8.08122,0 c -4.75681,0 -8.5863,-3.82948 -8.5863,-8.58629 l 0,-8.08122 c 0,-4.75681 3.82949,-8.5863 8.5863,-8.5863 z"
         id="rect6079" /><path
         transform="translate(13.37817,118.84058)"
         style="fill:#000000;fill-opacity:1;fill-rule:nonzero;stroke:none"
         d="m 393.9595,510.93512 c 0,13.9473 -11.30652,25.25381 -25.25381,25.25381 -13.9473,0 -25.25381,-11.30651 -25.25381,-25.25381 0,-13.9473 11.30651,-25.25381 25.25381,-25.25381 13.94729,0 25.25381,11.30651 25.25381,25.25381 z"
         id="path6077" /></g><path
       transform="matrix(0.98348615,-0.18098342,0.18098342,0.98348615,0,0)"
       style="fill:#000000;fill-opacity:1;fill-rule:nonzero;stroke:none"
       d="m 250.81575,714.52557 12.75318,0 c 0.41971,0 0.75761,0.3379 0.75761,0.75762 0,0.41972 -0.3379,0.75761 -0.75761,0.75761 l -12.75318,0 c -0.41972,0 -0.75761,-0.33789 -0.75761,-0.75761 0,-0.41972 0.33789,-0.75762 0.75761,-0.75762 z"
       id="rect6085" /><path
       transform="matrix(0.98348615,-0.18098342,0.18098342,0.98348615,0,0)"
       style="fill:#000000;fill-opacity:1;fill-rule:nonzero;stroke:none"
       d="m 250.09181,718.45953 12.75318,0 c 0.41972,0 0.75761,0.3379 0.75761,0.75762 0,0.41972 -0.33789,0.75761 -0.75761,0.75761 l -12.75318,0 c -0.41972,0 -0.75761,-0.33789 -0.75761,-0.75761 0,-0.41972 0.33789,-0.75762 0.75761,-0.75762 z"
       id="rect6087" /></g><g
     style="fill:#000000;stroke:#000000"
     id="g5140"><path
       style="fill:#000000;fill-opacity:1;stroke:#000000;stroke-width:19.84654427px;stroke-linecap:round;stroke-linejoin:miter;stroke-opacity:1"
       d="m 10.064604,367.00021 35.69322,0"
       id="path6110-6" /><path
       style="fill:#000000;fill-opacity:1;stroke:#000000;stroke-width:19.84654427px;stroke-linecap:round;stroke-linejoin:miter;stroke-opacity:1"
       d="m 155.45914,211.57571 0,35.69322"
       id="path6110-6-2" /><path
       style="fill:#000000;fill-opacity:1;stroke:#000000;stroke-width:19.84654427px;stroke-linecap:round;stroke-linejoin:miter;stroke-opacity:1"
       d="m 30.933298,254.30662 25.23892,25.23892"
       id="path6110-6-2-3" /><path
       style="fill:#000000;fill-opacity:1;stroke:#000000;stroke-width:19.84654427px;stroke-linecap:round;stroke-linejoin:miter;stroke-opacity:1"
       d="m 266.6772,256.12132 -25.23892,25.23892"
       id="path6110-6-2-3-4" /></g><path
     id="path6110-6-8"
     d="m 299.47228,366.37918 -35.69322,0"
     style="fill:#358f18;fill-opacity:1;stroke:#000000;stroke-width:19.84654427px;stroke-linecap:round;stroke-linejoin:miter;stroke-opacity:1" /><path
     id="path6110-6-2-7"
     d="m 154.07774,531.80368 0,-35.69322"
     style="fill:#000000;fill-opacity:1;stroke:#000000;stroke-width:19.84654427px;stroke-linecap:round;stroke-linejoin:miter;stroke-opacity:1" /><path
     id="path6110-6-2-3-3"
     d="M 278.60358,479.07277 253.36466,453.83385"
     style="fill:#000000;fill-opacity:1;stroke:#000000;stroke-width:19.84654427px;stroke-linecap:round;stroke-linejoin:miter;stroke-opacity:1" /><path
     id="path6110-6-2-3-4-2"
     d="M 42.85968,477.25807 68.0986,452.01915"
     style="fill:#000000;fill-opacity:1;stroke:#000000;stroke-width:19.84654427px;stroke-linecap:round;stroke-linejoin:miter;stroke-opacity:1" /></svg>