<?xml version="1.0" encoding="UTF-8" standalone="no"?>
<svg
   xmlns:dc="http://purl.org/dc/elements/1.1/"
   xmlns:cc="http://creativecommons.org/ns#"
   xmlns:rdf="http://www.w3.org/1999/02/22-rdf-syntax-ns#"
   xmlns:svg="http://www.w3.org/2000/svg"
   xmlns="http://www.w3.org/2000/svg"
   version="1.1"
   id="svg5361"
   viewBox="0 0 267.37719 391.25134"
   height="110.41982mm"
   width="75.459785mm">
  <defs
     id="defs5363" />
  <metadata
     id="metadata5366">
    <rdf:RDF>
      <cc:Work
         rdf:about="">
        <dc:format>image/svg+xml</dc:format>
        <dc:type
           rdf:resource="http://purl.org/dc/dcmitype/StillImage" />
        <dc:title></dc:title>
      </cc:Work>
    </rdf:RDF>
  </metadata>
  <g
     transform="translate(-226.22217,-288.64194)"
     id="layer1">
    <text
       id="text6009"
       y="372.95782"
       x="326.70245"
       style="font-style:normal;font-variant:normal;font-weight:normal;font-stretch:normal;font-size:20px;line-height:125%;font-family:DS-Digital;-inkscape-font-specification:DS-Digital;letter-spacing:0px;word-spacing:0px;fill:#000000;fill-opacity:1;stroke:none;stroke-width:1px;stroke-linecap:butt;stroke-linejoin:miter;stroke-opacity:1"
       xml:space="preserve"><tspan
         y="372.95782"
         x="326.70245"
         id="tspan6011" /></text>
    <path
       id="path5920"
       transform="translate(226.22217,288.64194)"
       d="M 130.8418 0.005859375 C 118.69689 -0.031540625 106.55014 0.11728875 94.408203 0.38671875 C 70.848423 0.90950875 47.009863 1.9306425 24.408203 8.6015625 C 20.758653 9.6787325 17.077951 10.938541 14.050781 13.244141 C 10.278071 16.117581 7.8015075 20.432865 6.3671875 24.953125 C 4.9328675 29.473385 4.4570412 34.234054 4.0507812 38.958984 C 3.1169412 49.819694 2.5130612 60.705853 2.0195312 71.595703 L 267.32617 71.595703 C 267.46924 61.729643 267.4326 51.827478 265.48047 42.173828 C 263.97623 34.735098 261.35403 27.542411 257.98047 20.744141 C 256.52778 17.816731 254.86182 14.871609 252.26562 12.886719 C 249.60884 10.855519 246.24706 10.033076 242.98047 9.3164062 C 218.13837 3.8662362 192.67894 1.7431806 167.26562 0.74414062 C 155.13007 0.26707063 142.98671 0.043229375 130.8418 0.005859375 z M 1.8027344 76.595703 C 1.1029544 93.113753 0.62764 109.63867 0.34375 126.16797 C 0.78941 126.10807 6.7133506 125.35568 24.931641 125.43555 L 24.931641 125.4375 C 31.250101 125.4652 39.028539 125.59402 48.537109 125.89062 C 49.109339 125.87532 49.867633 125.87852 50.751953 126.05078 C 51.710493 126.23746 52.931286 126.60115 53.878906 127.80078 C 55.056546 129.29161 55.615234 130.98828 55.615234 130.98828 A 2.50025 2.50025 0 0 1 55.785156 131.875 L 56.650391 230.9375 A 2.50025 2.50025 0 0 1 56.638672 231.19922 C 56.638672 231.19922 56.498429 233.32533 54.792969 234.99023 C 53.939739 235.82276 52.999474 236.31003 52.083984 236.67383 C 51.168494 237.03764 50.371318 237.28334 49.330078 237.27734 L 49.535156 237.26758 C 22.715666 239.30436 0.9765625 237.24414 0.9765625 237.24414 A 2.500361 2.500361 0 0 1 0.71875 237.20508 C 0.75965 239.33716 0.7923575 241.4696 0.8359375 243.60156 C 0.8409375 243.83853 0.8467625 244.07553 0.8515625 244.3125 L 266.24023 244.3125 C 266.30863 241.94806 266.36228 239.58335 266.41992 237.21875 C 266.10076 237.24875 244.5952 239.25597 217.97461 237.23438 L 218.17969 237.24219 C 217.13845 237.24819 216.33994 237.00052 215.42383 236.63672 C 214.50835 236.27291 213.57004 235.78761 212.7168 234.95508 C 211.00999 233.28997 210.86914 231.16406 210.86914 231.16406 A 2.50025 2.50025 0 0 1 210.85938 230.90234 L 211.72266 131.83984 A 2.50025 2.50025 0 0 1 211.89453 130.95312 C 211.89453 130.95312 212.45322 129.25648 213.63086 127.76562 C 214.57848 126.56601 215.79927 126.20231 216.75781 126.01562 C 217.64214 125.84343 218.40042 125.8402 218.97266 125.85547 C 228.48123 125.55887 236.25966 125.42809 242.57812 125.40039 C 259.95896 125.32419 266.01858 125.99325 266.95117 126.10938 C 266.94067 109.60361 266.99298 93.098183 267.25977 76.595703 L 1.8027344 76.595703 z M 238.33594 82.601562 C 240.69742 82.623963 243.04871 83.357151 245.00391 84.681641 C 246.95911 86.006131 248.5115 87.916832 249.4082 90.101562 L 249.05078 111.53125 C 248.24071 113.63468 246.81001 115.4944 244.98438 116.81641 C 243.15875 118.13841 240.94453 118.91792 238.69336 119.03125 C 236.11982 119.16081 233.51049 118.4109 231.39648 116.9375 C 229.28248 115.4641 227.67737 113.27574 226.9082 110.81641 L 226.55078 91.53125 C 227.24429 88.9721 228.80647 86.655788 230.91992 85.054688 C 233.03337 83.453588 235.68461 82.576382 238.33594 82.601562 z M 62.980469 84.316406 L 206.55078 84.316406 L 206.55078 127.53125 L 62.980469 127.53125 L 62.980469 84.316406 z M 30.835938 99.529297 A 3.714678 3.7146783 0 0 1 34.550781 103.24414 A 3.714678 3.7146783 0 0 1 30.835938 106.95898 A 3.714678 3.7146783 0 0 1 27.123047 103.24414 A 3.714678 3.7146783 0 0 1 30.835938 99.529297 z M 242.53125 130.39453 C 236.30235 130.42663 228.59871 130.55813 219.12891 130.85352 A 2.50025 2.50025 0 0 1 218.9668 130.85352 C 218.57707 130.84042 218.05534 130.85753 217.71289 130.92383 C 217.56878 130.95183 217.51042 130.98475 217.47266 131.00195 C 217.21647 131.38419 216.86857 132.12935 216.7168 132.45508 L 215.85938 230.70703 C 215.86638 230.73533 215.96294 231.13882 216.20703 231.37695 A 2.50025 2.50025 0 0 0 216.20898 231.37695 C 216.33526 231.50017 216.80282 231.80399 217.27148 231.99023 C 217.74014 232.17649 218.30208 232.24123 218.14844 232.24219 A 2.50025 2.50025 0 0 1 218.35352 232.24805 C 244.7163 234.25013 266.06055 232.23242 266.06055 232.23242 A 2.5004534 2.5004534 0 0 1 266.53906 232.23438 C 267.25978 198.54075 267.00342 164.83193 266.95703 131.125 A 2.5007093 2.5007093 0 0 1 266.63086 131.10156 C 266.63086 131.10156 261.21794 130.29814 242.53125 130.39453 z M 24.978516 130.42773 C 6.2918356 130.33133 0.87890625 131.13477 0.87890625 131.13477 A 2.50025 2.50025 0 0 1 0.26757812 131.15625 C -0.23643187 164.87393 0.018039375 198.60606 0.63085938 232.32617 A 2.500361 2.500361 0 0 1 1.4472656 232.26562 C 1.4472656 232.26562 22.79348 234.28524 49.15625 232.2832 A 2.50025 2.50025 0 0 1 49.361328 232.27539 C 49.207708 232.27443 49.769621 232.21159 50.238281 232.02539 C 50.706941 231.83915 51.174501 231.53338 51.300781 231.41016 C 51.543471 231.1734 51.640438 230.77674 51.648438 230.74414 L 50.791016 132.48633 C 50.638386 132.15877 50.291036 131.41599 50.035156 131.03516 C 49.997356 131.01746 49.939052 130.98503 49.794922 130.95703 C 49.452472 130.89073 48.932709 130.87362 48.542969 130.88672 A 2.50025 2.50025 0 0 1 48.380859 130.88672 C 38.911059 130.59133 31.207416 130.45987 24.978516 130.42773 z M 133.51562 150.0957 C 152.51535 150.0957 168.23633 163.94069 168.23633 181.32031 L 163.23633 181.32031 C 163.23633 166.97184 150.1064 155.0957 133.51562 155.0957 C 116.92486 155.0957 103.79492 166.97184 103.79492 181.32031 L 98.794922 181.32031 C 98.794922 163.94069 114.51592 150.0957 133.51562 150.0957 z M 129.16406 174.91406 L 139.20117 174.92969 C 141.30926 175.15654 143.32711 176.15607 144.7832 177.69727 C 146.23928 179.23848 147.12362 181.30821 147.23047 183.42578 C 147.3483 185.76089 146.51212 188.1308 144.95508 189.875 C 143.39804 191.6192 141.13815 192.71643 138.80469 192.86328 L 127.93945 192.625 C 125.85935 192.27392 123.91776 191.15664 122.56836 189.53516 C 121.21896 187.91369 120.47328 185.80262 120.50586 183.69336 C 120.54086 181.42475 121.48088 179.18168 123.07422 177.56641 C 124.66756 175.95115 126.89614 174.9801 129.16406 174.91406 z M 109.28906 194.68164 A 4.9906102 4.9906102 0 0 1 109.78711 194.70703 L 109.78711 196.21484 A 3.4934272 3.4934272 0 0 0 105.87695 198.92383 L 108.78906 198.92383 L 108.78906 200.42188 L 105.87695 200.42188 A 3.4934272 3.4934272 0 0 0 109.78711 203.13086 L 109.78711 204.63867 A 4.9906102 4.9906102 0 1 1 109.28906 194.68164 z M 100.57617 194.6875 A 4.9906102 4.9906102 0 0 1 100.5957 194.6875 A 4.9906102 4.9906102 0 0 1 101.30469 194.70703 L 101.30469 196.21484 A 3.4934272 3.4934272 0 1 0 101.30469 203.13086 L 101.30469 204.63867 A 4.9906102 4.9906102 0 1 1 100.57617 194.6875 z M 83.353516 215.33008 L 84.353516 215.33008 L 84.353516 230.33008 L 83.353516 230.33008 L 83.353516 215.33008 z M 84.853516 215.33008 L 85.353516 215.33008 L 85.353516 230.33008 L 84.853516 230.33008 L 84.853516 215.33008 z M 86.353516 215.33008 L 86.853516 215.33008 L 86.853516 230.33008 L 86.353516 230.33008 L 86.353516 215.33008 z M 88.853516 215.33008 L 90.353516 215.33008 L 90.353516 230.33008 L 88.853516 230.33008 L 88.853516 215.33008 z M 90.853516 215.33008 L 91.353516 215.33008 L 91.353516 230.33008 L 90.853516 230.33008 L 90.853516 215.33008 z M 92.853516 215.33008 L 93.853516 215.33008 L 93.853516 230.33008 L 92.853516 230.33008 L 92.853516 215.33008 z M 94.353516 215.33008 L 94.853516 215.33008 L 94.853516 230.33008 L 94.353516 230.33008 L 94.353516 215.33008 z M 96.853516 215.33008 L 97.853516 215.33008 L 97.853516 230.33008 L 96.853516 230.33008 L 96.853516 215.33008 z M 98.353516 215.33008 L 98.853516 215.33008 L 98.853516 230.33008 L 98.353516 230.33008 L 98.353516 215.33008 z M 99.853516 215.33008 L 100.85352 215.33008 L 100.85352 230.33008 L 99.853516 230.33008 L 99.853516 215.33008 z M 102.85352 215.33008 L 103.35352 215.33008 L 103.35352 230.33008 L 102.85352 230.33008 L 102.85352 215.33008 z M 104.35352 215.33008 L 104.85352 215.33008 L 104.85352 230.33008 L 104.35352 230.33008 L 104.35352 215.33008 z M 105.35352 215.33008 L 105.85352 215.33008 L 105.85352 230.33008 L 105.35352 230.33008 L 105.35352 215.33008 z M 107.85352 215.33008 L 108.85352 215.33008 L 108.85352 230.33008 L 107.85352 230.33008 L 107.85352 215.33008 z M 109.35352 215.33008 L 109.85352 215.33008 L 109.85352 230.33008 L 109.35352 230.33008 L 109.35352 215.33008 z M 110.85352 215.33008 L 111.35352 215.33008 L 111.35352 230.33008 L 110.85352 230.33008 L 110.85352 215.33008 z M 111.85352 215.33008 L 112.35352 215.33008 L 112.35352 230.33008 L 111.85352 230.33008 L 111.85352 215.33008 z M 113.35352 215.33008 L 115.35352 215.33008 L 115.35352 230.33008 L 113.35352 230.33008 L 113.35352 215.33008 z M 116.35352 215.33008 L 116.85352 215.33008 L 116.85352 230.33008 L 116.35352 230.33008 L 116.35352 215.33008 z M 117.35352 215.33008 L 118.35352 215.33008 L 118.35352 230.33008 L 117.35352 230.33008 L 117.35352 215.33008 z M 119.35352 215.33008 L 119.85352 215.33008 L 119.85352 230.33008 L 119.35352 230.33008 L 119.35352 215.33008 z M 121.85352 215.33008 L 122.35352 215.33008 L 122.35352 230.33008 L 121.85352 230.33008 L 121.85352 215.33008 z M 124.35352 215.33008 L 124.85352 215.33008 L 124.85352 230.33008 L 124.35352 230.33008 L 124.35352 215.33008 z M 125.85352 215.33008 L 126.85352 215.33008 L 126.85352 230.33008 L 125.85352 230.33008 L 125.85352 215.33008 z M 127.35352 215.33008 L 127.85352 215.33008 L 127.85352 230.33008 L 127.35352 230.33008 L 127.35352 215.33008 z M 129.85352 215.33008 L 130.85352 215.33008 L 130.85352 230.33008 L 129.85352 230.33008 L 129.85352 215.33008 z M 131.35352 215.33008 L 131.85352 215.33008 L 131.85352 230.33008 L 131.35352 230.33008 L 131.35352 215.33008 z M 132.85352 215.33008 L 133.35352 215.33008 L 133.35352 230.33008 L 132.85352 230.33008 L 132.85352 215.33008 z M 134.35352 215.33008 L 134.85352 215.33008 L 134.85352 230.33008 L 134.35352 230.33008 L 134.35352 215.33008 z M 135.35352 215.33008 L 136.35352 215.33008 L 136.35352 230.33008 L 135.35352 230.33008 L 135.35352 215.33008 z M 138.35352 215.33008 L 139.35352 215.33008 L 139.35352 230.33008 L 138.35352 230.33008 L 138.35352 215.33008 z M 139.85352 215.33008 L 140.85352 215.33008 L 140.85352 230.33008 L 139.85352 230.33008 L 139.85352 215.33008 z M 141.85352 215.33008 L 142.85352 215.33008 L 142.85352 230.33008 L 141.85352 230.33008 L 141.85352 215.33008 z M 143.85352 215.33008 L 144.35352 215.33008 L 144.35352 230.33008 L 143.85352 230.33008 L 143.85352 215.33008 z M 145.35352 215.33008 L 146.85352 215.33008 L 146.85352 230.33008 L 145.35352 230.33008 L 145.35352 215.33008 z M 147.85352 215.33008 L 148.85352 215.33008 L 148.85352 230.33008 L 147.85352 230.33008 L 147.85352 215.33008 z M 149.35352 215.33008 L 150.35352 215.33008 L 150.35352 230.33008 L 149.35352 230.33008 L 149.35352 215.33008 z M 151.35352 215.33008 L 152.85352 215.33008 L 152.85352 230.33008 L 151.35352 230.33008 L 151.35352 215.33008 z M 153.85352 215.33008 L 154.35352 215.33008 L 154.35352 230.33008 L 153.85352 230.33008 L 153.85352 215.33008 z M 154.85352 215.33008 L 156.35352 215.33008 L 156.35352 230.33008 L 154.85352 230.33008 L 154.85352 215.33008 z M 156.85352 215.33008 L 157.35352 215.33008 L 157.35352 230.33008 L 156.85352 230.33008 L 156.85352 215.33008 z M 158.35352 215.33008 L 159.35352 215.33008 L 159.35352 230.33008 L 158.35352 230.33008 L 158.35352 215.33008 z M 160.35352 215.33008 L 160.85352 215.33008 L 160.85352 230.33008 L 160.35352 230.33008 L 160.35352 215.33008 z M 161.85352 215.33008 L 162.85352 215.33008 L 162.85352 230.33008 L 161.85352 230.33008 L 161.85352 215.33008 z M 163.35352 215.33008 L 164.85352 215.33008 L 164.85352 230.33008 L 163.35352 230.33008 L 163.35352 215.33008 z M 165.85352 215.33008 L 166.35352 215.33008 L 166.35352 230.33008 L 165.85352 230.33008 L 165.85352 215.33008 z M 167.85352 215.33008 L 168.35352 215.33008 L 168.35352 230.33008 L 167.85352 230.33008 L 167.85352 215.33008 z M 168.85352 215.33008 L 169.85352 215.33008 L 169.85352 230.33008 L 168.85352 230.33008 L 168.85352 215.33008 z M 171.35352 215.33008 L 172.35352 215.33008 L 172.35352 230.33008 L 171.35352 230.33008 L 171.35352 215.33008 z M 172.85352 215.33008 L 174.35352 215.33008 L 174.35352 230.33008 L 172.85352 230.33008 L 172.85352 215.33008 z M 174.85352 215.33008 L 176.35352 215.33008 L 176.35352 230.33008 L 174.85352 230.33008 L 174.85352 215.33008 z M 176.85352 215.33008 L 177.85352 215.33008 L 177.85352 230.33008 L 176.85352 230.33008 L 176.85352 215.33008 z M 179.35352 215.33008 L 180.85352 215.33008 L 180.85352 230.33008 L 179.35352 230.33008 L 179.35352 215.33008 z M 181.35352 215.33008 L 181.85352 215.33008 L 181.85352 230.33008 L 181.35352 230.33008 L 181.35352 215.33008 z M 182.35352 215.33008 L 183.35352 215.33008 L 183.35352 230.33008 L 182.35352 230.33008 L 182.35352 215.33008 z M 0.96679688 249.3125 C 1.4078169 269.45357 2.0327394 289.59828 3.6933594 309.67383 C 5.0815194 326.45552 7.1923662 343.21275 11.035156 359.60742 C 11.686896 362.38797 12.392851 365.16658 13.462891 367.81445 C 14.532941 370.46233 15.983739 372.98937 17.980469 375.03125 C 21.825589 378.9633 27.306747 380.76568 32.623047 382.17383 C 51.813867 387.25697 71.726881 388.96412 91.550781 390.03125 C 117.98581 391.45426 144.50154 391.77413 170.92969 390.22852 C 190.58179 389.0792 210.18465 386.89624 229.54102 383.31055 C 231.98755 382.85734 234.43868 382.37957 236.79883 381.5918 C 239.159 380.80404 241.43697 379.69369 243.33594 378.08594 C 245.63227 376.14177 247.29469 373.53478 248.49414 370.77539 C 249.69359 368.016 250.45683 365.09109 251.19336 362.17383 C 255.76826 344.05357 259.50142 325.70707 261.9082 307.17383 C 264.39947 287.98999 265.45986 268.64943 266.08789 249.3125 L 0.96679688 249.3125 z "
       style="fill:#000000;fill-rule:evenodd;stroke:none;stroke-width:5;stroke-linecap:butt;stroke-linejoin:miter;stroke-miterlimit:4;stroke-dasharray:none;stroke-opacity:1" />
    <g
       id="text4154"
       style="font-style:normal;font-variant:normal;font-weight:normal;font-stretch:normal;font-size:54.1302948px;line-height:125%;font-family:DS-Digital;-inkscape-font-specification:DS-Digital;letter-spacing:0px;word-spacing:0px;fill:#000000;fill-opacity:1;stroke:none;stroke-width:1px;stroke-linecap:butt;stroke-linejoin:miter;stroke-opacity:1"
       transform="matrix(0.73609187,0,0,0.76417095,123.81284,154.54811)">
      <path
         id="path4159"
         d="m 250.67633,297.7111 -3.64149,3.6907 -11.95788,0 -3.64149,-3.6907 19.24086,0 z m 0,34.44655 -19.24086,0 3.64149,-3.6907 11.95788,0 3.64149,3.6907 z m -16.23909,-14.2215 0,9.84187 -3.6907,3.6907 0,-14.41834 1.37786,-1.42707 2.31284,2.31284 z m -3.6907,-5.06856 0,-14.46756 3.6907,3.69071 0,9.84187 -2.31284,2.31284 -1.37786,-1.37786 z m 20.61872,4.18279 0,14.41834 -3.64149,-3.6907 0,-9.84187 2.31284,-2.31284 1.32865,1.42707 z m -3.64149,-5.11777 0,-9.84187 3.64149,-3.69071 0,14.46756 -1.32865,1.37786 -2.31284,-2.31284 z m -0.24605,1.18102 1.86996,1.82075 -1.86996,1.82074 -12.84364,0 -1.82075,-1.82074 1.82075,-1.82075 12.84364,0 z"
         style="fill:#000000" />
    </g>
    <g
       id="text4154-7"
       style="font-style:normal;font-variant:normal;font-weight:normal;font-stretch:normal;font-size:54.1302948px;line-height:125%;font-family:DS-Digital;-inkscape-font-specification:DS-Digital;letter-spacing:0px;word-spacing:0px;fill:#000000;fill-opacity:1;stroke:none;stroke-width:1px;stroke-linecap:butt;stroke-linejoin:miter;stroke-opacity:1"
       transform="matrix(0.73609187,0,0,0.76417095,143.24855,154.85249)">
      <path
         id="path4159-9"
         d="m 250.67633,297.7111 -3.64149,3.6907 -11.95788,0 -3.64149,-3.6907 19.24086,0 z m 0,34.44655 -19.24086,0 3.64149,-3.6907 11.95788,0 3.64149,3.6907 z m -16.23909,-14.2215 0,9.84187 -3.6907,3.6907 0,-14.41834 1.37786,-1.42707 2.31284,2.31284 z m -3.6907,-5.06856 0,-14.46756 3.6907,3.69071 0,9.84187 -2.31284,2.31284 -1.37786,-1.37786 z m 20.61872,4.18279 0,14.41834 -3.64149,-3.6907 0,-9.84187 2.31284,-2.31284 1.32865,1.42707 z m -3.64149,-5.11777 0,-9.84187 3.64149,-3.69071 0,14.46756 -1.32865,1.37786 -2.31284,-2.31284 z m -0.24605,1.18102 1.86996,1.82075 -1.86996,1.82074 -12.84364,0 -1.82075,-1.82074 1.82075,-1.82075 12.84364,0 z"
         style="fill:#000000" />
    </g>
    <g
       id="text4154-1"
       style="font-style:normal;font-variant:normal;font-weight:normal;font-stretch:normal;font-size:54.1302948px;line-height:125%;font-family:DS-Digital;-inkscape-font-specification:DS-Digital;letter-spacing:0px;word-spacing:0px;fill:#000000;fill-opacity:1;stroke:none;stroke-width:1px;stroke-linecap:butt;stroke-linejoin:miter;stroke-opacity:1"
       transform="matrix(0.73609187,0,0,0.76417095,162.80212,154.85249)">
      <path
         id="path4159-8"
         d="m 250.67633,297.7111 -3.64149,3.6907 -11.95788,0 -3.64149,-3.6907 19.24086,0 z m 0,34.44655 -19.24086,0 3.64149,-3.6907 11.95788,0 3.64149,3.6907 z m -16.23909,-14.2215 0,9.84187 -3.6907,3.6907 0,-14.41834 1.37786,-1.42707 2.31284,2.31284 z m -3.6907,-5.06856 0,-14.46756 3.6907,3.69071 0,9.84187 -2.31284,2.31284 -1.37786,-1.37786 z m 20.61872,4.18279 0,14.41834 -3.64149,-3.6907 0,-9.84187 2.31284,-2.31284 1.32865,1.42707 z m -3.64149,-5.11777 0,-9.84187 3.64149,-3.69071 0,14.46756 -1.32865,1.37786 -2.31284,-2.31284 z m -0.24605,1.18102 1.86996,1.82075 -1.86996,1.82074 -12.84364,0 -1.82075,-1.82074 1.82075,-1.82075 12.84364,0 z"
         style="fill:#000000" />
    </g>
    <g
       id="text4154-2"
       style="font-style:normal;font-variant:normal;font-weight:normal;font-stretch:normal;font-size:54.1302948px;line-height:125%;font-family:DS-Digital;-inkscape-font-specification:DS-Digital;letter-spacing:0px;word-spacing:0px;fill:#000000;fill-opacity:1;stroke:none;stroke-width:1px;stroke-linecap:butt;stroke-linejoin:miter;stroke-opacity:1"
       transform="matrix(0.73609187,0,0,0.76417095,183.15926,154.85249)">
      <path
         id="path4159-5"
         d="m 250.67633,297.7111 -3.64149,3.6907 -11.95788,0 -3.64149,-3.6907 19.24086,0 z m 0,34.44655 -19.24086,0 3.64149,-3.6907 11.95788,0 3.64149,3.6907 z m -16.23909,-14.2215 0,9.84187 -3.6907,3.6907 0,-14.41834 1.37786,-1.42707 2.31284,2.31284 z m -3.6907,-5.06856 0,-14.46756 3.6907,3.69071 0,9.84187 -2.31284,2.31284 -1.37786,-1.37786 z m 20.61872,4.18279 0,14.41834 -3.64149,-3.6907 0,-9.84187 2.31284,-2.31284 1.32865,1.42707 z m -3.64149,-5.11777 0,-9.84187 3.64149,-3.69071 0,14.46756 -1.32865,1.37786 -2.31284,-2.31284 z m -0.24605,1.18102 1.86996,1.82075 -1.86996,1.82074 -12.84364,0 -1.82075,-1.82074 1.82075,-1.82075 12.84364,0 z"
         style="fill:#000000" />
    </g>
    <g
       id="text4154-9"
       style="font-style:normal;font-variant:normal;font-weight:normal;font-stretch:normal;font-size:54.1302948px;line-height:125%;font-family:DS-Digital;-inkscape-font-specification:DS-Digital;letter-spacing:0px;word-spacing:0px;fill:#000000;fill-opacity:1;stroke:none;stroke-width:1px;stroke-linecap:butt;stroke-linejoin:miter;stroke-opacity:1"
       transform="matrix(0.73609187,0,0,0.76417095,203.03962,155.23603)">
      <path
         id="path4159-2"
         d="m 250.67633,297.7111 -3.64149,3.6907 -11.95788,0 -3.64149,-3.6907 19.24086,0 z m 0,34.44655 -19.24086,0 3.64149,-3.6907 11.95788,0 3.64149,3.6907 z m -16.23909,-14.2215 0,9.84187 -3.6907,3.6907 0,-14.41834 1.37786,-1.42707 2.31284,2.31284 z m -3.6907,-5.06856 0,-14.46756 3.6907,3.69071 0,9.84187 -2.31284,2.31284 -1.37786,-1.37786 z m 20.61872,4.18279 0,14.41834 -3.64149,-3.6907 0,-9.84187 2.31284,-2.31284 1.32865,1.42707 z m -3.64149,-5.11777 0,-9.84187 3.64149,-3.69071 0,14.46756 -1.32865,1.37786 -2.31284,-2.31284 z m -0.24605,1.18102 1.86996,1.82075 -1.86996,1.82074 -12.84364,0 -1.82075,-1.82074 1.82075,-1.82075 12.84364,0 z"
         style="fill:#000000" />
    </g>
    <g
       id="text4154-7-8"
       style="font-style:normal;font-variant:normal;font-weight:normal;font-stretch:normal;font-size:54.1302948px;line-height:125%;font-family:DS-Digital;-inkscape-font-specification:DS-Digital;letter-spacing:0px;word-spacing:0px;fill:#000000;fill-opacity:1;stroke:none;stroke-width:1px;stroke-linecap:butt;stroke-linejoin:miter;stroke-opacity:1"
       transform="matrix(0.73609187,0,0,0.76417095,222.47534,155.54041)">
      <path
         id="path4159-9-8"
         d="m 250.67633,297.7111 -3.64149,3.6907 -11.95788,0 -3.64149,-3.6907 19.24086,0 z m 0,34.44655 -19.24086,0 3.64149,-3.6907 11.95788,0 3.64149,3.6907 z m -16.23909,-14.2215 0,9.84187 -3.6907,3.6907 0,-14.41834 1.37786,-1.42707 2.31284,2.31284 z m -3.6907,-5.06856 0,-14.46756 3.6907,3.69071 0,9.84187 -2.31284,2.31284 -1.37786,-1.37786 z m 20.61872,4.18279 0,14.41834 -3.64149,-3.6907 0,-9.84187 2.31284,-2.31284 1.32865,1.42707 z m -3.64149,-5.11777 0,-9.84187 3.64149,-3.69071 0,14.46756 -1.32865,1.37786 -2.31284,-2.31284 z m -0.24605,1.18102 1.86996,1.82075 -1.86996,1.82074 -12.84364,0 -1.82075,-1.82074 1.82075,-1.82075 12.84364,0 z"
         style="fill:#000000" />
    </g>
    <text
       transform="scale(0.80469621,1.242705)"
       id="text4172"
       y="329.4101"
       x="508.32202"
       style="font-style:normal;font-weight:normal;font-size:34.59786224px;line-height:125%;font-family:sans-serif;letter-spacing:0px;word-spacing:0px;fill:#000000;fill-opacity:1;stroke:none;stroke-width:1px;stroke-linecap:butt;stroke-linejoin:miter;stroke-opacity:1"
       xml:space="preserve"><tspan
         style="font-size:12.9741993px;fill:#000000"
         y="329.4101"
         x="508.32202"
         id="tspan4174">kWh</tspan></text>
    <g
       transform="translate(79.263778,20.895524)"
       id="barcode"
       style="fill:#ffffff">
      <g
         transform="matrix(0.5,0,0,0.5,130.81218,249.07614)"
         id="g4370"
         style="fill:#ffffff" />
    </g>
    <g
       transform="matrix(0.5,0,0,0.5,180.09531,242.66959)"
       id="g4439"
       style="fill:#ffffff" />
  </g>
</svg>
