<?xml version="1.0" encoding="UTF-8" standalone="no"?>
<!-- Generator: Adobe Illustrator 19.0.0, SVG Export Plug-In . SVG Version: 6.00 Build 0)  -->

<svg
   xmlns:dc="http://purl.org/dc/elements/1.1/"
   xmlns:cc="http://creativecommons.org/ns#"
   xmlns:rdf="http://www.w3.org/1999/02/22-rdf-syntax-ns#"
   xmlns:svg="http://www.w3.org/2000/svg"
   xmlns="http://www.w3.org/2000/svg"
   xmlns:sodipodi="http://sodipodi.sourceforge.net/DTD/sodipodi-0.dtd"
   xmlns:inkscape="http://www.inkscape.org/namespaces/inkscape"
   version="1.1"
   id="Layer_1"
   x="0px"
   y="0px"
   viewBox="-362.7 661.4 132.2 132.3"
   style="enable-background:new -362.7 661.4 132.2 132.3;"
   xml:space="preserve"
   inkscape:version="0.91 r13725"
   sodipodi:docname="flow_gas.svg"><metadata
     id="metadata15"><rdf:RDF><cc:Work
         rdf:about=""><dc:format>image/svg+xml</dc:format><dc:type
           rdf:resource="http://purl.org/dc/dcmitype/StillImage" /></cc:Work></rdf:RDF></metadata><defs
     id="defs13" /><sodipodi:namedview
     pagecolor="#ffffff"
     bordercolor="#666666"
     borderopacity="1"
     objecttolerance="10"
     gridtolerance="10"
     guidetolerance="10"
     inkscape:pageopacity="0"
     inkscape:pageshadow="2"
     inkscape:window-width="1214"
     inkscape:window-height="741"
     id="namedview11"
     showgrid="false"
     inkscape:zoom="1.7838246"
     inkscape:cx="66.099998"
     inkscape:cy="66.150002"
     inkscape:window-x="1505"
     inkscape:window-y="503"
     inkscape:window-maximized="0"
     inkscape:current-layer="Layer_1" /><style
     type="text/css"
     id="style3">
	.st0{opacity:0;}
</style><rect
     x="-362.7"
     y="661.4"
     class="st0"
     width="132.2"
     height="132.2"
     id="rect5" /><path
     d="M-295.5,769.8c-4.2,1.5-10.4,1.5-16.8,1.5h-1.2h-7.7c-6.6,0-12.6,0-16.8-1.5c-4.2-1.5-6.1-4.5-6.1-9.5v-49.7  c0-10.4,6.6-19.3,15.7-22.8v-6.2c-0.1-4.5,3.6-8.2,8-8.2h7.2c4.5,0,8.1,3.7,8.1,8.2v6.2c9.2,3.5,15.7,12.4,15.7,22.8v49.7  C-289.6,765.4-291.5,768.4-295.5,769.8z M-311,679.7h-11.7c-0.8,0-1.5,0.7-1.5,1.5s0.7,1.5,1.5,1.5h11.7c0.8,0,1.5-0.7,1.5-1.5  C-309.5,680.3-310.2,679.7-311,679.7z M-319.7,707.1c0,0,1.1,9.3-3.9,15.1c-3.8,4.4-6.1,9.9-4.4,15.4c0,0.1,0.1,0.2,0.1,0.2  c0,0.1,0,0.1,0.1,0.2l0,0c1.5,4.3,5.7,7.5,10.6,7.5c3.8,0,7-1.9,9.2-4.6c0,0,2.9-3.2,2.9-9.1C-305.3,725.9-308.1,717.5-319.7,707.1z   M-303.6,750.4c-4.4,2.5-8.8,1.2-13.2,0c-4.4-1.3-8.8-2.5-13.2,0c0,0.4,0,0.8,0,1.2s0,0.8,0,1.2c4.4-2.5,8.8-1.2,13.2,0  c2.5,0.7,5.1,1.4,7.6,1.4c1.9,0,3.7-0.4,5.6-1.4C-303.6,752.1-303.6,751.2-303.6,750.4z M-311.5,738.1  C-311.5,738.1-311.5,738.2-311.5,738.1C-311.5,738.2-311.5,738.2-311.5,738.1c-0.8,2.3-2.9,3.7-5.2,3.7c-1.8,0-3.5-1-4.4-2.3l0,0  c0,0-5.6-6.4,5.7-16.4c0,0-0.5,4.5,1.9,7.4c1.8,2.1,3,4.9,2.1,7.5C-311.5,738-311.5,738.1-311.5,738.1z M-321.3,774.6h1.2h7.7  c0.4,0,0.8,0,1.2,0c6.6,0,12.3-0.1,16.8-1.7c2-0.7,3.7-1.8,5-3.2c-0.4,12.6-11.2,10.8-24.3,10.8h-6.2c-13.1,0-24,1.8-24.3-10.8  c1.3,1.4,3,2.4,5,3.2C-334.5,774.6-328.4,774.6-321.3,774.6z"
     id="path9" /><path
     style="color:#000000;clip-rule:nonzero;display:inline;overflow:visible;visibility:visible;opacity:1;isolation:auto;mix-blend-mode:normal;color-interpolation:sRGB;color-interpolation-filters:linearRGB;solid-color:#000000;solid-opacity:1;fill:none;fill-opacity:1;fill-rule:nonzero;stroke:#000000;stroke-width:6.86323404;stroke-linecap:round;stroke-linejoin:round;stroke-miterlimit:4;stroke-dasharray:none;stroke-dashoffset:0;stroke-opacity:1;color-rendering:auto;image-rendering:auto;shape-rendering:auto;text-rendering:auto;enable-background:accumulate"
     d="m -276.42294,770.00735 c 12.79963,16.10773 24.7658,-20.6377 39.3504,-0.52291"
     id="path4377"
     inkscape:connector-curvature="0"
     sodipodi:nodetypes="cc" /><path
     style="color:#000000;clip-rule:nonzero;display:inline;overflow:visible;visibility:visible;opacity:1;isolation:auto;mix-blend-mode:normal;color-interpolation:sRGB;color-interpolation-filters:linearRGB;solid-color:#000000;solid-opacity:1;fill:none;fill-opacity:1;fill-rule:nonzero;stroke:#000000;stroke-width:6.86323404;stroke-linecap:round;stroke-linejoin:round;stroke-miterlimit:4;stroke-dasharray:none;stroke-dashoffset:0;stroke-opacity:1;color-rendering:auto;image-rendering:auto;shape-rendering:auto;text-rendering:auto;enable-background:accumulate"
     d="m -276.42224,783.77438 c 12.79963,16.10773 24.7658,-20.6377 39.3504,-0.52291"
     id="path4377-2"
     inkscape:connector-curvature="0"
     sodipodi:nodetypes="cc" /></svg>