<?xml version="1.0" encoding="UTF-8" standalone="no"?>
<svg
   xmlns:dc="http://purl.org/dc/elements/1.1/"
   xmlns:cc="http://creativecommons.org/ns#"
   xmlns:rdf="http://www.w3.org/1999/02/22-rdf-syntax-ns#"
   xmlns:svg="http://www.w3.org/2000/svg"
   xmlns="http://www.w3.org/2000/svg"
   version="1.1"
   id="svg5361"
   viewBox="0 0 529.87742 779.77226"
   height="220.06906mm"
   width="149.54318mm">
  <defs
     id="defs5363" />
  <metadata
     id="metadata5366">
    <rdf:RDF>
      <cc:Work
         rdf:about="">
        <dc:format>image/svg+xml</dc:format>
        <dc:type
           rdf:resource="http://purl.org/dc/dcmitype/StillImage" />
        <dc:title></dc:title>
      </cc:Work>
    </rdf:RDF>
  </metadata>
  <g
     transform="translate(-94.695567,-95.050027)"
     id="layer1">
    <text
       id="text6009"
       y="261.64792"
       x="292.85715"
       style="font-style:normal;font-variant:normal;font-weight:normal;font-stretch:normal;font-size:40px;line-height:125%;font-family:DS-Digital;-inkscape-font-specification:DS-Digital;letter-spacing:0px;word-spacing:0px;fill:#000000;fill-opacity:1;stroke:none;stroke-width:1px;stroke-linecap:butt;stroke-linejoin:miter;stroke-opacity:1"
       xml:space="preserve"><tspan
         y="261.64792"
         x="292.85715"
         id="tspan6011" /></text>
    <g
       id="text4154"
       style="font-style:normal;font-variant:normal;font-weight:normal;font-stretch:normal;font-size:54.1302948px;line-height:125%;font-family:DS-Digital;-inkscape-font-specification:DS-Digital;letter-spacing:0px;word-spacing:0px;fill:#000000;fill-opacity:1;stroke:none;stroke-width:1px;stroke-linecap:butt;stroke-linejoin:miter;stroke-opacity:1"
       transform="scale(0.98145583,1.0188946)">
      <path
         id="path4159"
         d="m 250.67633,297.7111 -3.64149,3.6907 -11.95788,0 -3.64149,-3.6907 19.24086,0 z m 0,34.44655 -19.24086,0 3.64149,-3.6907 11.95788,0 3.64149,3.6907 z m -16.23909,-14.2215 0,9.84187 -3.6907,3.6907 0,-14.41834 1.37786,-1.42707 2.31284,2.31284 z m -3.6907,-5.06856 0,-14.46756 3.6907,3.69071 0,9.84187 -2.31284,2.31284 -1.37786,-1.37786 z m 20.61872,4.18279 0,14.41834 -3.64149,-3.6907 0,-9.84187 2.31284,-2.31284 1.32865,1.42707 z m -3.64149,-5.11777 0,-9.84187 3.64149,-3.69071 0,14.46756 -1.32865,1.37786 -2.31284,-2.31284 z m -0.24605,1.18102 1.86996,1.82075 -1.86996,1.82074 -12.84364,0 -1.82075,-1.82074 1.82075,-1.82075 12.84364,0 z" />
    </g>
    <g
       id="text4154-7"
       style="font-style:normal;font-variant:normal;font-weight:normal;font-stretch:normal;font-size:54.1302948px;line-height:125%;font-family:DS-Digital;-inkscape-font-specification:DS-Digital;letter-spacing:0px;word-spacing:0px;fill:#000000;fill-opacity:1;stroke:none;stroke-width:1px;stroke-linecap:butt;stroke-linejoin:miter;stroke-opacity:1"
       transform="matrix(0.98145583,0,0,1.0188946,25.914282,0.40584171)">
      <path
         id="path4159-9"
         d="m 250.67633,297.7111 -3.64149,3.6907 -11.95788,0 -3.64149,-3.6907 19.24086,0 z m 0,34.44655 -19.24086,0 3.64149,-3.6907 11.95788,0 3.64149,3.6907 z m -16.23909,-14.2215 0,9.84187 -3.6907,3.6907 0,-14.41834 1.37786,-1.42707 2.31284,2.31284 z m -3.6907,-5.06856 0,-14.46756 3.6907,3.69071 0,9.84187 -2.31284,2.31284 -1.37786,-1.37786 z m 20.61872,4.18279 0,14.41834 -3.64149,-3.6907 0,-9.84187 2.31284,-2.31284 1.32865,1.42707 z m -3.64149,-5.11777 0,-9.84187 3.64149,-3.69071 0,14.46756 -1.32865,1.37786 -2.31284,-2.31284 z m -0.24605,1.18102 1.86996,1.82075 -1.86996,1.82074 -12.84364,0 -1.82075,-1.82074 1.82075,-1.82075 12.84364,0 z" />
    </g>
    <g
       id="text4154-1"
       style="font-style:normal;font-variant:normal;font-weight:normal;font-stretch:normal;font-size:54.1302948px;line-height:125%;font-family:DS-Digital;-inkscape-font-specification:DS-Digital;letter-spacing:0px;word-spacing:0px;fill:#000000;fill-opacity:1;stroke:none;stroke-width:1px;stroke-linecap:butt;stroke-linejoin:miter;stroke-opacity:1"
       transform="matrix(0.98145583,0,0,1.0188946,51.98571,0.40584213)">
      <path
         id="path4159-8"
         d="m 250.67633,297.7111 -3.64149,3.6907 -11.95788,0 -3.64149,-3.6907 19.24086,0 z m 0,34.44655 -19.24086,0 3.64149,-3.6907 11.95788,0 3.64149,3.6907 z m -16.23909,-14.2215 0,9.84187 -3.6907,3.6907 0,-14.41834 1.37786,-1.42707 2.31284,2.31284 z m -3.6907,-5.06856 0,-14.46756 3.6907,3.69071 0,9.84187 -2.31284,2.31284 -1.37786,-1.37786 z m 20.61872,4.18279 0,14.41834 -3.64149,-3.6907 0,-9.84187 2.31284,-2.31284 1.32865,1.42707 z m -3.64149,-5.11777 0,-9.84187 3.64149,-3.69071 0,14.46756 -1.32865,1.37786 -2.31284,-2.31284 z m -0.24605,1.18102 1.86996,1.82075 -1.86996,1.82074 -12.84364,0 -1.82075,-1.82074 1.82075,-1.82075 12.84364,0 z" />
    </g>
    <g
       id="text4154-2"
       style="font-style:normal;font-variant:normal;font-weight:normal;font-stretch:normal;font-size:54.1302948px;line-height:125%;font-family:DS-Digital;-inkscape-font-specification:DS-Digital;letter-spacing:0px;word-spacing:0px;fill:#000000;fill-opacity:1;stroke:none;stroke-width:1px;stroke-linecap:butt;stroke-linejoin:miter;stroke-opacity:1"
       transform="matrix(0.98145583,0,0,1.0188946,79.128567,0.40584213)">
      <path
         id="path4159-5"
         d="m 250.67633,297.7111 -3.64149,3.6907 -11.95788,0 -3.64149,-3.6907 19.24086,0 z m 0,34.44655 -19.24086,0 3.64149,-3.6907 11.95788,0 3.64149,3.6907 z m -16.23909,-14.2215 0,9.84187 -3.6907,3.6907 0,-14.41834 1.37786,-1.42707 2.31284,2.31284 z m -3.6907,-5.06856 0,-14.46756 3.6907,3.69071 0,9.84187 -2.31284,2.31284 -1.37786,-1.37786 z m 20.61872,4.18279 0,14.41834 -3.64149,-3.6907 0,-9.84187 2.31284,-2.31284 1.32865,1.42707 z m -3.64149,-5.11777 0,-9.84187 3.64149,-3.69071 0,14.46756 -1.32865,1.37786 -2.31284,-2.31284 z m -0.24605,1.18102 1.86996,1.82075 -1.86996,1.82074 -12.84364,0 -1.82075,-1.82074 1.82075,-1.82075 12.84364,0 z" />
    </g>
    <g
       id="text4154-9"
       style="font-style:normal;font-variant:normal;font-weight:normal;font-stretch:normal;font-size:54.1302948px;line-height:125%;font-family:DS-Digital;-inkscape-font-specification:DS-Digital;letter-spacing:0px;word-spacing:0px;fill:#000000;fill-opacity:1;stroke:none;stroke-width:1px;stroke-linecap:butt;stroke-linejoin:miter;stroke-opacity:1"
       transform="matrix(0.98145583,0,0,1.0188946,105.63571,0.91720781)">
      <path
         id="path4159-2"
         d="m 250.67633,297.7111 -3.64149,3.6907 -11.95788,0 -3.64149,-3.6907 19.24086,0 z m 0,34.44655 -19.24086,0 3.64149,-3.6907 11.95788,0 3.64149,3.6907 z m -16.23909,-14.2215 0,9.84187 -3.6907,3.6907 0,-14.41834 1.37786,-1.42707 2.31284,2.31284 z m -3.6907,-5.06856 0,-14.46756 3.6907,3.69071 0,9.84187 -2.31284,2.31284 -1.37786,-1.37786 z m 20.61872,4.18279 0,14.41834 -3.64149,-3.6907 0,-9.84187 2.31284,-2.31284 1.32865,1.42707 z m -3.64149,-5.11777 0,-9.84187 3.64149,-3.69071 0,14.46756 -1.32865,1.37786 -2.31284,-2.31284 z m -0.24605,1.18102 1.86996,1.82075 -1.86996,1.82074 -12.84364,0 -1.82075,-1.82074 1.82075,-1.82075 12.84364,0 z" />
    </g>
    <g
       id="text4154-7-8"
       style="font-style:normal;font-variant:normal;font-weight:normal;font-stretch:normal;font-size:54.1302948px;line-height:125%;font-family:DS-Digital;-inkscape-font-specification:DS-Digital;letter-spacing:0px;word-spacing:0px;fill:#000000;fill-opacity:1;stroke:none;stroke-width:1px;stroke-linecap:butt;stroke-linejoin:miter;stroke-opacity:1"
       transform="matrix(0.98145583,0,0,1.0188946,131.55,1.3230478)">
      <path
         id="path4159-9-8"
         d="m 250.67633,297.7111 -3.64149,3.6907 -11.95788,0 -3.64149,-3.6907 19.24086,0 z m 0,34.44655 -19.24086,0 3.64149,-3.6907 11.95788,0 3.64149,3.6907 z m -16.23909,-14.2215 0,9.84187 -3.6907,3.6907 0,-14.41834 1.37786,-1.42707 2.31284,2.31284 z m -3.6907,-5.06856 0,-14.46756 3.6907,3.69071 0,9.84187 -2.31284,2.31284 -1.37786,-1.37786 z m 20.61872,4.18279 0,14.41834 -3.64149,-3.6907 0,-9.84187 2.31284,-2.31284 1.32865,1.42707 z m -3.64149,-5.11777 0,-9.84187 3.64149,-3.69071 0,14.46756 -1.32865,1.37786 -2.31284,-2.31284 z m -0.24605,1.18102 1.86996,1.82075 -1.86996,1.82074 -12.84364,0 -1.82075,-1.82074 1.82075,-1.82075 12.84364,0 z" />
    </g>
    <g
       id="text4154-1-4"
       style="font-style:normal;font-variant:normal;font-weight:normal;font-stretch:normal;font-size:54.1302948px;line-height:125%;font-family:DS-Digital;-inkscape-font-specification:DS-Digital;letter-spacing:0px;word-spacing:0px;fill:#000000;fill-opacity:1;stroke:none;stroke-width:1px;stroke-linecap:butt;stroke-linejoin:miter;stroke-opacity:1"
       transform="matrix(0.98145583,0,0,1.0188946,157.62142,1.3230478)">
      <path
         id="path4159-8-4"
         d="m 250.67633,297.7111 -3.64149,3.6907 -11.95788,0 -3.64149,-3.6907 19.24086,0 z m 0,34.44655 -19.24086,0 3.64149,-3.6907 11.95788,0 3.64149,3.6907 z m -16.23909,-14.2215 0,9.84187 -3.6907,3.6907 0,-14.41834 1.37786,-1.42707 2.31284,2.31284 z m -3.6907,-5.06856 0,-14.46756 3.6907,3.69071 0,9.84187 -2.31284,2.31284 -1.37786,-1.37786 z m 20.61872,4.18279 0,14.41834 -3.64149,-3.6907 0,-9.84187 2.31284,-2.31284 1.32865,1.42707 z m -3.64149,-5.11777 0,-9.84187 3.64149,-3.69071 0,14.46756 -1.32865,1.37786 -2.31284,-2.31284 z m -0.24605,1.18102 1.86996,1.82075 -1.86996,1.82074 -12.84364,0 -1.82075,-1.82074 1.82075,-1.82075 12.84364,0 z" />
    </g>
    <g
       id="text4154-2-1"
       style="font-style:normal;font-variant:normal;font-weight:normal;font-stretch:normal;font-size:54.1302948px;line-height:125%;font-family:DS-Digital;-inkscape-font-specification:DS-Digital;letter-spacing:0px;word-spacing:0px;fill:#000000;fill-opacity:1;stroke:none;stroke-width:1px;stroke-linecap:butt;stroke-linejoin:miter;stroke-opacity:1"
       transform="matrix(0.98145583,0,0,1.0188946,184.76428,1.3230478)">
      <path
         id="path4159-5-6"
         d="m 250.67633,297.7111 -3.64149,3.6907 -11.95788,0 -3.64149,-3.6907 19.24086,0 z m 0,34.44655 -19.24086,0 3.64149,-3.6907 11.95788,0 3.64149,3.6907 z m -16.23909,-14.2215 0,9.84187 -3.6907,3.6907 0,-14.41834 1.37786,-1.42707 2.31284,2.31284 z m -3.6907,-5.06856 0,-14.46756 3.6907,3.69071 0,9.84187 -2.31284,2.31284 -1.37786,-1.37786 z m 20.61872,4.18279 0,14.41834 -3.64149,-3.6907 0,-9.84187 2.31284,-2.31284 1.32865,1.42707 z m -3.64149,-5.11777 0,-9.84187 3.64149,-3.69071 0,14.46756 -1.32865,1.37786 -2.31284,-2.31284 z m -0.24605,1.18102 1.86996,1.82075 -1.86996,1.82074 -12.84364,0 -1.82075,-1.82074 1.82075,-1.82075 12.84364,0 z" />
    </g>
    <path
       id="path4249"
       d="m 95.2807,582.51374 c 0.890427,57.26607 1.728229,114.84034 12.00883,171.36204 4.82406,25.58877 7.93871,51.66325 15.40299,76.65653 5.33713,15.21114 21.60835,22.33981 36.3504,25.15135 57.80576,13.27379 117.36661,16.04684 176.43102,18.553 60.74617,2.03016 121.67087,-1.15222 181.7392,-10.57361 17.68707,-3.17172 36.03751,-4.24107 53.05343,-10.27809 14.90944,-5.86917 19.22287,-22.93133 22.05964,-37.02094 12.6415,-55.20504 24.05861,-110.93607 27.21424,-167.61411 1.00508,-21.27636 2.75588,-42.79606 2.55848,-63.9653 -175.53925,-0.77088 -351.07833,-1.5791 -526.616988,-2.47409 l -0.201242,0.20322 z"
       style="fill:#000000;fill-opacity:1;fill-rule:nonzero;stroke:none;stroke-width:5;stroke-linecap:round;stroke-linejoin:round;stroke-miterlimit:4;stroke-dasharray:none;stroke-opacity:1" />
    <path
       id="path4251"
       d="m 97.954053,241.01312 c -1.681307,29.05382 -2.220137,58.38511 -2.470138,87.34269 l 100.220145,0 c 5.73516,3.35324 7.73907,8.39239 6.54523,14.87779 0.24408,74.17169 1.83378,148.35502 0.83924,222.5216 -0.19537,6.78303 -8.70822,8.89327 -14.23653,8.39321 -30.46374,0.90893 -61.00245,-0.60033 -91.430644,0.95886 -3.307306,0.19556 -1.335322,4.04154 1.298203,3.1074 49.381111,1.45469 98.820591,0.47132 148.224041,0.95484 123.29186,0.23998 246.58681,1.21069 369.87495,1.44654 1.18169,0.25734 7.52404,-0.33208 4.52671,-2.2613 -25.59688,-1.86515 -51.38346,-0.34571 -77.04948,-1.05521 -8.31688,-1.01468 -18.82283,2.51734 -25.00931,-4.90144 -4.86161,-4.14702 -1.1634,-11.80647 -2.25255,-17.50148 0.72785,-70.65115 0.26546,-141.32601 1.9525,-211.96068 -0.55504,-5.51529 2.37509,-12.17364 8.79543,-11.8614 31.67787,-1.57339 63.63582,0.46569 95.2128,-0.12627 0.91309,-29.15606 1.7418,-58.54537 1.12458,-87.58339 -175.32198,-0.69969 -350.64389,-1.44591 -525.963935,-2.53919 z m 470.770547,7.51301 c 9.66947,-0.15879 19.21786,6.31644 23.14472,14.97275 1.56738,15.31806 0.0981,30.8475 0.23083,46.23816 -5.07826,8.97243 -14.52623,16.11695 -25.2617,14.8958 -11.29324,0.5812 -21.12585,-8.84022 -23.31515,-19.258 0.38864,-13.7389 -0.77898,-27.95135 0.54649,-41.4043 4.89255,-9.1939 14.02651,-15.68525 24.65481,-15.44441 z m -207.23516,11.1393 145.27256,0 c -0.17532,30.00337 -0.3496,60.00674 -0.52283,90.01011 -96.46219,-0.0326 -192.93562,0.84849 -289.39095,-0.14401 -1.11116,-29.9335 -0.43653,-59.91401 -0.63134,-89.8661 z m -207.5607,30.94382 c 8.48742,-0.3694 11.72628,13.09028 3.94985,16.58465 -7.2365,5.43757 -17.26489,-5.31017 -12.1968,-12.43159 1.76447,-2.70541 5.09053,-4.12294 8.24695,-4.15306 z M 366.68817,396.6141 c 21.13257,-0.60917 41.17985,11.99714 53.13363,28.88997 8.83485,12.36612 12.14771,27.84824 11.15902,42.8644 -7.26805,2.22464 -7.11116,-3.48842 -6.99214,-9.16042 -0.35849,-20.53931 -12.45948,-39.97283 -30.60276,-49.53619 -29.65504,-16.68554 -70.738,-5.63197 -88.41097,23.34169 -6.59817,9.67823 -9.4359,21.2804 -9.88726,32.82363 -1.0084,4.03963 -9.09735,3.22343 -7.14407,-1.8171 1.19588,-27.45988 19.68917,-53.33038 45.63246,-62.77743 10.51963,-4.97619 21.69995,-4.95452 33.11209,-4.62855 z m -13.57392,46.96814 c 9.50609,0.006 17.65595,-1.60478 25.1157,2.74439 9.94779,6.18045 10.41827,21.84795 0.75565,28.52497 -6.62746,4.58049 -17.28931,2.7939 -28.5936,2.47587 -9.58582,0.0681 -14.91348,-5.30523 -16.14604,-15.83595 -0.56223,-10.92923 7.39114,-19.59276 18.4342,-17.90572 l 0.43212,-0.004 0.002,0 z"
       style="fill:#000000;fill-opacity:1;fill-rule:nonzero;stroke:none;stroke-width:5;stroke-linecap:round;stroke-linejoin:round;stroke-miterlimit:4;stroke-dasharray:none;stroke-opacity:1" />
    <path
       id="path4253"
       d="m 160.68808,332.16361 c -21.83461,0.23253 -43.88776,-0.0356 -65.582973,0.53861 -0.139098,79.33478 -1.263216,158.90521 0.9411,238.0902 33.061023,-0.34163 66.202013,0.80007 99.213943,-0.97662 6.72541,-2.44857 3.33852,-10.8862 4.32137,-16.16034 0.007,-69.97016 -0.43884,-139.95295 -1.84728,-209.90864 -0.46496,-3.91245 0.92588,-11.52984 -5.19874,-11.17876 -10.59014,-0.7272 -21.24026,-0.32055 -31.84742,-0.40445 z"
       style="fill:#000000;fill-opacity:1;fill-rule:nonzero;stroke:none;stroke-width:5;stroke-linecap:round;stroke-linejoin:round;stroke-miterlimit:4;stroke-dasharray:none;stroke-opacity:1" />
    <path
       id="path4255"
       d="m 539.16383,334.52523 c -4.82546,0.9913 -11.97077,-1.79747 -15.39891,2.78384 -2.90129,11.15994 -0.88385,23.08332 -1.72734,34.51845 -0.37561,64.30982 -1.52129,128.6365 -0.57765,192.94115 -0.50852,3.55956 1.0232,7.73 5.3098,7.19174 31.7236,1.30618 63.70394,1.48483 95.3292,1.67306 2.30356,-55.69691 1.5321,-111.47776 1.69672,-167.21176 -0.20142,-23.67316 -0.26073,-47.5589 -1.00027,-71.09348 -27.87665,-0.26671 -55.75313,-0.83273 -83.63155,-0.803 z m 20.41021,91.75421 c 1.28896,2.44612 0.18146,5.86044 0.31764,8.608 -0.0428,-1.22714 0.20676,-7.33019 -1.98282,-4.4135 0.46727,-1.27664 0.46182,-3.46558 1.66518,-4.1945 z m 11.87126,0.16968 c 4.17233,-0.25786 -1.95033,0.46765 -0.85429,3.17645 -0.0328,2.86095 -1.19182,9.07284 3.73678,7.80501 3.58645,0.53984 4.1891,-3.76669 0.95096,-4.78836 -0.14232,-1.2638 2.30538,-3.20245 1.15615,-4.85939 1.66729,1.90253 -0.3723,5.18105 1.72042,7.19339 -0.47395,3.69418 -5.72272,3.04925 -8.38506,3.08767 0.59705,-3.64065 -1.07418,-8.23398 0.78919,-11.48456 0.2784,-0.12196 0.5886,-0.12255 0.88585,-0.13021 z m -21.43812,0.35907 c 0.66643,3.13948 0.23756,8.36779 -0.2624,10.30474 -0.17897,-3.3637 -0.43139,-7.09628 0.2624,-10.30474 z m 41.82466,3.58091 c -0.38682,1.94507 0.82363,3.76486 3.1804,3.86897 2.19774,-0.0303 1.82922,4.90938 0.46562,3.20407 1.32403,-3.24803 -6.73017,-4.21709 -3.86502,-7.07304 l 0.146,-0.008 0.073,0.008 z m -10.70328,1.60204 c 0.18786,1.18128 1.45941,6.0227 0.66291,5.471 -0.65247,-1.59624 -1.01072,-4.76765 -0.66291,-5.471 z m 6.20692,0.4814 c 0.31362,1.64072 -0.16563,5.63896 -0.11838,1.74804 0.0132,-0.0826 -1.5e-4,-2.71088 0.11838,-1.74804 z m -33.47709,3.28497 c 1.33418,0.96121 1.09753,3.55548 -0.0178,0.91151 -0.0743,-0.26264 -0.22113,-0.70622 0.0178,-0.91151 z m 37.51178,1.02988 c 3.43684,1.63836 -1.65811,1.72218 0,0 z"
       style="fill:#000000;fill-opacity:1;fill-rule:nonzero;stroke:none;stroke-width:5;stroke-linecap:round;stroke-linejoin:round;stroke-miterlimit:4;stroke-dasharray:none;stroke-opacity:1" />
    <path
       id="path4257"
       d="m 343.77428,95.050027 c -51.27781,0.655095 -102.77964,0.370838 -153.75824,6.617293 -21.33562,3.38136 -43.08137,7.13006 -62.89975,16.03617 -15.94517,7.50004 -21.88206,25.77471 -23.67545,42.05352 -3.06955,25.59954 -4.486118,51.41638 -5.50257,77.16026 105.75526,1.15539 211.75878,1.08759 317.60938,1.67097 69.64654,0.14575 139.52132,0.82459 209.02536,0.67092 -0.66746,-29.79791 0.34459,-60.81964 -11.93592,-88.71296 -5.61208,-13.21626 -11.12703,-29.89625 -26.36701,-34.61837 -28.33004,-7.70977 -57.72917,-10.73077 -86.79815,-14.41046 C 447.77332,96.21955 395.7101,95.120417 343.77428,95.050027 Z"
       style="fill:#000000;fill-opacity:1;fill-rule:nonzero;stroke:none;stroke-width:5;stroke-linecap:round;stroke-linejoin:round;stroke-miterlimit:4;stroke-dasharray:none;stroke-opacity:1" />
    <text
       id="text4259"
       y="438.31573"
       x="547.75525"
       style="font-style:normal;font-weight:normal;font-size:40px;line-height:125%;font-family:sans-serif;letter-spacing:0px;word-spacing:0px;fill:#000000;fill-opacity:1;stroke:none;stroke-width:1px;stroke-linecap:butt;stroke-linejoin:miter;stroke-opacity:1"
       xml:space="preserve"><tspan
         style="font-style:normal;font-variant:normal;font-weight:normal;font-stretch:normal;font-size:17.5px;font-family:Arial;-inkscape-font-specification:Arial;fill:#ffffff"
         y="438.31573"
         x="547.75525"
         id="tspan4261">M-Bus</tspan></text>
  </g>
</svg>
